<?xml version="1.0" standalone="no"?>
<!DOCTYPE svg PUBLIC "-//W3C//DTD SVG 20010904//EN"
 "http://www.w3.org/TR/2001/REC-SVG-20010904/DTD/svg10.dtd">
<svg version="1.0" xmlns="http://www.w3.org/2000/svg"
 width="1000.000000pt" height="660.000000pt" viewBox="0 0 1000.000000 660.000000"
 preserveAspectRatio="xMidYMid meet">
<metadata>
Created by potrace 1.13, written by Peter Selinger 2001-2015
</metadata>
<g transform="translate(0.000000,660.000000) scale(0.100000,-0.100000)"
fill="#000000" stroke="none">
<path d="M4509 6574 c73 -24 198 -47 212 -38 4 2 10 0 14 -6 3 -5 19 -10 36
-10 16 0 29 -4 29 -9 0 -4 23 -11 52 -14 28 -4 56 -11 62 -17 5 -5 22 -10 37
-10 15 0 32 -7 39 -15 7 -8 25 -15 40 -15 16 0 30 -5 32 -11 6 -19 95 -23 121
-6 44 29 149 57 212 57 51 0 72 -6 116 -30 30 -17 62 -33 72 -36 9 -4 17 -12
17 -19 0 -7 12 -22 26 -32 32 -24 39 -83 23 -188 -11 -66 -29 -104 -72 -150
-26 -28 -36 -57 -26 -77 9 -17 -14 -34 -31 -23 -5 3 -11 1 -15 -5 -3 -5 -15
-10 -26 -10 -10 0 -19 -4 -19 -10 0 -5 5 -10 10 -10 6 0 10 -12 10 -26 0 -24
21 -103 41 -153 8 -18 6 -26 -8 -36 -15 -11 -14 -14 12 -27 17 -10 24 -18 16
-22 -6 -4 -11 -16 -11 -27 0 -11 -4 -17 -10 -14 -5 3 -10 0 -10 -7 0 -7 -9
-19 -20 -26 -12 -7 -18 -17 -15 -22 3 -4 1 -19 -4 -32 -5 -13 -12 -35 -15 -49
-7 -33 -56 -92 -56 -66 0 22 -9 22 -29 -2 -9 -10 -26 -21 -38 -25 -13 -4 -23
-14 -23 -22 0 -8 -7 -14 -15 -14 -13 0 -17 -6 -14 -26 2 -16 -31 -24 -93 -24
-39 0 -68 4 -68 10 0 12 -37 13 -44 1 -12 -19 6 -43 28 -37 12 3 27 1 35 -3 9
-6 -2 -10 -30 -15 -49 -6 -61 -5 -104 11 -34 12 -87 27 -160 43 -81 18 -128
32 -160 45 -65 28 -250 60 -350 60 -105 0 -120 5 -128 46 -16 76 11 -158 49
-416 24 -165 58 -402 76 -527 31 -218 34 -228 53 -220 44 16 162 5 217 -20 93
-43 250 -153 337 -237 47 -45 86 -81 88 -81 2 0 3 57 3 128 1 70 5 199 10 287
15 257 76 454 146 471 47 12 156 -50 235 -134 71 -74 89 -104 89 -147 0 -16
11 -29 34 -43 19 -11 57 -54 87 -98 29 -43 73 -104 98 -135 48 -60 152 -259
191 -367 13 -35 26 -60 30 -55 8 8 33 103 56 211 7 35 24 87 38 115 13 29 34
77 46 108 35 92 197 277 280 319 78 40 133 12 213 -109 23 -36 53 -72 67 -80
13 -9 21 -11 18 -6 -4 6 8 17 25 25 17 7 26 15 20 17 -8 3 -10 15 -6 34 5 25
2 31 -16 36 -25 6 -27 25 -4 44 13 11 64 14 234 14 225 -1 267 -7 220 -37 -11
-7 -21 -16 -21 -19 0 -8 44 -26 85 -35 17 -4 42 -20 56 -36 l26 -30 76 89
c139 163 310 314 378 335 36 10 42 9 60 -8 32 -32 45 -122 30 -201 -7 -38 -16
-127 -21 -198 -7 -103 -16 -156 -44 -250 -19 -66 -42 -147 -50 -180 -8 -33
-35 -139 -61 -235 -64 -234 -64 -235 -28 -185 35 51 454 463 550 543 230 190
406 257 548 208 57 -20 62 -34 38 -102 -63 -176 -108 -285 -136 -334 -17 -30
-52 -95 -77 -145 -40 -78 -109 -205 -185 -340 -12 -22 -36 -63 -53 -91 -18
-28 -32 -54 -32 -57 0 -3 -21 -39 -47 -80 -27 -41 -97 -153 -156 -248 -60 -96
-126 -200 -148 -231 -22 -32 -38 -58 -35 -58 6 0 116 84 218 166 42 34 109 83
150 109 40 27 85 56 99 66 91 61 497 255 639 304 141 49 269 85 302 85 15 0
31 -8 36 -17 9 -15 14 -12 43 19 27 28 50 39 119 57 134 37 222 18 206 -43 -7
-27 -100 -147 -168 -217 -24 -24 -78 -87 -120 -139 -112 -139 -270 -290 -448
-426 -165 -127 -603 -441 -775 -555 -232 -154 -299 -195 -418 -256 l-92 -48
115 -6 c272 -15 658 -63 805 -99 44 -11 91 -20 104 -20 13 0 41 -5 63 -12 27
-8 42 -8 46 -1 8 11 99 36 110 29 5 -3 62 -6 127 -7 66 -1 152 -9 190 -17 87
-19 256 -20 543 -2 l212 14 0 123 c0 102 -3 125 -15 130 -14 5 -14 7 -1 22 11
13 15 46 15 148 1 115 -1 133 -17 142 -16 10 -16 12 1 41 15 28 17 67 17 385
l0 352 -72 24 c-62 20 -117 53 -106 64 6 6 77 13 131 14 l47 1 0 1435 0 1435
-114 -3 c-71 -1 -118 2 -127 9 -8 6 -31 14 -52 18 -21 4 -44 9 -52 12 -8 4
-13 -3 -13 -18 -1 -56 -22 -167 -33 -174 -5 -3 -9 0 -9 6 0 13 -59 9 -123 -8
-21 -6 -92 -9 -158 -8 l-120 2 6 -30 c3 -19 -4 -8 -21 29 -14 33 -31 66 -36
73 -13 15 -106 16 -145 1 -15 -6 -41 -13 -58 -16 -16 -2 -50 -10 -75 -18 -25
-7 -79 -21 -120 -31 -41 -9 -113 -27 -160 -41 -108 -31 -187 -37 -242 -17 -40
14 -124 24 -373 45 -66 5 -135 13 -155 18 -19 5 -47 12 -62 15 -15 3 -38 17
-50 29 -23 23 -77 41 -152 51 l-40 5 51 -44 c61 -54 83 -108 83 -204 0 -73
-14 -103 -71 -162 -19 -19 -43 -51 -53 -72 -44 -85 -153 -146 -239 -133 -48 7
-115 48 -148 89 -27 35 -37 137 -19 193 7 21 30 56 51 76 22 22 44 59 54 87
15 45 55 96 111 142 11 8 41 21 67 28 55 16 53 26 -3 22 -22 -1 -40 2 -40 7 0
10 -67 32 -99 32 -11 0 -21 4 -21 9 0 5 -13 14 -30 21 -16 7 -30 18 -30 25 0
8 -7 20 -15 28 -18 19 -34 117 -23 147 15 41 68 99 101 109 59 18 213 25 277
11 33 -7 60 -16 60 -21 0 -4 62 -5 139 -3 104 4 165 0 247 -13 109 -18 201
-20 419 -8 129 8 292 -7 393 -35 92 -26 253 -35 357 -21 124 17 148 22 171 33
15 7 28 7 43 -1 18 -10 21 -8 27 15 11 44 38 64 78 57 20 -3 36 -9 36 -12 0
-20 102 -39 209 -40 97 0 115 -3 127 -18 9 -12 13 -14 14 -5 0 21 25 8 26 -14
0 -10 -5 -26 -11 -34 -20 -25 -24 -58 -9 -71 19 -16 55 2 112 55 l42 40 0 198
0 198 -150 0 -150 0 0 -26 c0 -26 -57 -90 -123 -139 -15 -11 -42 -32 -60 -47
-56 -49 -171 -39 -311 28 -27 13 -65 27 -85 30 -58 10 -249 99 -264 122 -4 6
-15 12 -22 12 -8 0 -15 5 -15 10 0 7 -737 10 -2192 9 l-2193 0 74 -25z m4965
-1216 c7 -10 21 -18 30 -18 9 0 16 -4 16 -10 0 -5 11 -10 25 -10 16 0 25 -6
25 -15 0 -8 7 -15 16 -15 11 0 14 -8 12 -31 -4 -27 -11 -34 -51 -50 -49 -20
-144 -40 -187 -41 -27 -1 -101 14 -165 32 -22 6 -53 15 -70 20 -16 4 -25 8
-19 9 6 1 9 11 7 24 -3 14 2 29 11 36 9 8 16 20 16 28 0 7 7 16 15 19 8 3 17
13 20 22 4 15 23 17 146 17 122 0 142 -2 153 -17z m-911 -1934 c10 1 57 -43
57 -55 0 -5 12 -12 28 -15 44 -11 82 -33 82 -49 0 -36 -156 -98 -290 -115 -36
-5 -69 -9 -75 -10 -25 -5 -55 1 -55 12 0 6 3 8 7 5 14 -15 31 15 27 46 -6 34
30 118 39 95 3 -8 6 -6 6 5 1 9 5 17 9 17 4 0 12 15 17 33 9 29 15 33 55 37
25 3 54 3 65 -1 11 -4 24 -6 28 -5z m1400 -1401 c4 -2 -4 -14 -19 -25 -23 -19
-26 -27 -22 -68 l5 -47 -181 -5 c-239 -8 -903 0 -941 10 -16 5 -29 13 -29 18
3 14 101 51 200 74 120 27 226 40 414 50 150 8 557 3 573 -7z"/>
<path d="M7424 5771 c-10 -10 -3 -31 11 -31 14 0 19 -11 16 -37 -2 -13 46 -53
64 -53 7 0 16 -7 19 -16 3 -8 11 -12 17 -9 6 4 23 -7 39 -25 18 -20 30 -27 35
-20 13 22 7 130 -9 165 -15 31 -36 47 -36 28 0 -5 -34 -6 -76 -3 -41 3 -77 3
-80 1z"/>
<path d="M3855 5370 c7 -51 25 -161 31 -193 3 -15 11 -27 17 -25 14 2 85 -30
109 -50 16 -14 49 -32 136 -77 18 -10 35 -16 37 -13 9 8 -15 163 -25 166 -6 2
-10 11 -10 20 0 10 -7 26 -15 36 -14 19 -15 18 -16 -10 0 -29 -1 -28 -19 11
l-19 40 0 -40 c-1 -27 -4 -36 -10 -26 -5 8 -16 11 -24 8 -9 -3 -17 2 -20 14
-8 29 -27 23 -28 -8 -1 -21 -3 -23 -6 -8 -3 11 -18 31 -33 45 -16 14 -30 34
-33 45 -3 14 -5 11 -6 -10 l-1 -29 -16 23 c-9 13 -25 44 -35 70 -18 43 -19 44
-14 11z"/>
<path d="M3901 5118 c-1 -25 50 -321 59 -337 4 -7 6 22 4 65 l-4 79 15 -64
c19 -83 23 -93 24 -53 1 22 6 32 16 32 11 0 14 7 9 24 -3 14 -1 33 4 42 8 15
12 9 17 -31 13 -88 44 -113 46 -37 1 20 3 28 6 17 2 -11 6 -30 9 -42 2 -13 9
-23 14 -23 5 0 7 7 4 15 -4 8 -4 15 -1 15 8 0 37 -103 37 -129 0 -12 5 -21 11
-21 7 0 8 20 5 58 -6 59 2 52 22 -18 10 -35 10 -34 12 20 4 114 0 156 -17 192
-10 21 -26 38 -38 40 -11 2 -22 14 -26 28 l-7 25 -1 -26 c-2 -42 -15 -43 -29
-2 l-12 38 5 -45 5 -45 -22 40 c-16 29 -23 35 -26 23 -6 -29 -26 -21 -54 23
-23 36 -27 38 -36 22 -10 -17 -11 -17 -17 2 -4 11 -11 29 -15 40 -5 11 -11 27
-13 35 -4 12 -6 12 -6 -2z"/>
<path d="M3400 4964 c0 -18 43 -265 95 -554 48 -263 91 -567 83 -576 -2 -2
-21 44 -43 102 -22 57 -45 104 -51 104 -7 0 -15 6 -17 13 -4 9 -8 8 -16 -3 -7
-10 -11 -11 -11 -2 0 6 -6 12 -14 12 -15 0 -82 57 -144 123 -19 20 -40 37 -46
37 -6 0 -17 9 -23 19 -7 11 -29 22 -52 26 -23 4 -41 11 -41 17 0 7 -20 9 -52
5 -38 -3 -67 1 -102 15 -60 23 -74 19 -78 -24 l-4 -33 -13 30 c-7 17 -27 58
-44 93 l-31 62 -71 -2 c-62 -3 -70 -5 -70 -23 0 -11 -4 -26 -8 -32 -5 -7 -4
-13 1 -13 5 0 9 -18 8 -40 0 -22 -2 -40 -3 -40 -2 0 -24 15 -50 33 -27 19 -55
37 -63 41 -8 3 -35 18 -60 32 -41 23 -46 23 -57 8 -8 -10 -20 -15 -33 -11 -21
5 -22 4 -15 -66 7 -63 18 -101 36 -117 3 -3 13 -27 23 -54 30 -78 66 -111 154
-140 68 -22 91 -25 200 -22 111 2 124 0 133 -16 5 -10 21 -96 34 -191 21 -148
65 -421 79 -490 3 -12 15 -75 27 -139 l21 -117 89 -35 c49 -20 118 -51 154
-70 36 -18 65 -30 65 -26 0 16 -73 105 -151 186 -63 65 -79 88 -79 112 0 45
20 55 98 50 50 -4 83 -13 127 -36 33 -18 68 -32 77 -32 19 0 242 -114 373
-190 50 -29 119 -69 155 -90 57 -31 142 -86 175 -112 9 -7 62 -50 198 -160 16
-13 63 -55 105 -94 77 -71 77 -71 147 -77 59 -5 135 -21 207 -43 9 -3 -21 46
-68 108 -47 64 -109 163 -141 227 -57 113 -75 129 -54 46 13 -53 14 -122 2
-130 -15 -9 -23 30 -26 129 -2 50 -18 165 -35 256 -18 91 -36 223 -41 294 -5
70 -17 183 -28 250 -11 66 -25 159 -31 206 -12 95 -46 241 -58 250 -16 12 -57
140 -67 213 -3 20 -10 37 -16 37 -5 0 -7 -12 -4 -27 9 -47 -23 48 -39 117
l-15 65 4 -90 c3 -76 2 -84 -6 -50 -17 67 -22 73 -29 40 -6 -28 -7 -27 -23 28
-18 59 -37 76 -37 32 0 -14 -4 -25 -10 -25 -5 0 -10 7 -10 16 0 8 -5 12 -10 9
-7 -4 -9 3 -5 22 4 17 3 23 -2 16 -5 -8 -16 18 -28 70 -20 82 -20 82 -24 37
l-4 -45 -13 45 -13 45 4 -40 c4 -33 125 -782 140 -867 5 -32 -10 -46 -23 -21
-5 10 -14 52 -21 93 -73 465 -139 799 -151 764 -5 -15 -9 -12 -18 15 -6 18
-16 30 -22 26 -5 -3 -10 1 -10 9 0 9 -4 16 -9 16 -4 0 -7 -24 -5 -52 4 -61 -4
-38 -25 67 -23 114 -31 126 -26 40 l4 -80 -14 45 c-8 25 -15 55 -15 67 0 15
-5 21 -14 17 -11 -4 -17 5 -22 30 -6 34 -24 61 -24 37 0 -19 -20 -12 -20 7 -1
15 -2 15 -15 -2 -14 -19 -15 -18 -15 13 0 27 -3 32 -17 27 -9 -4 -20 -1 -25 6
-5 9 -8 4 -8 -14 0 -45 -17 -41 -30 8 -13 44 -44 76 -52 53 -2 -7 -12 1 -22
17 -27 43 -74 84 -80 70 -3 -7 -8 -6 -15 4 -8 12 -11 12 -11 1 0 -11 -3 -11
-15 -1 -8 7 -15 9 -15 4z"/>
<path d="M6731 4260 c0 -14 6 -56 15 -95 9 -38 20 -90 25 -115 15 -72 14 -72
61 -45 62 36 165 68 193 61 26 -7 48 17 81 89 10 22 19 42 21 45 2 3 -45 5
-105 6 -101 0 -209 21 -236 46 -6 4 -18 8 -27 8 -10 0 -20 6 -22 13 -3 6 -6 1
-6 -13z"/>
<path d="M6170 3515 c-7 -8 -17 -50 -23 -94 -8 -64 -7 -99 8 -192 10 -63 17
-134 16 -157 -1 -27 2 -41 8 -38 5 4 11 -4 13 -16 3 -20 5 -18 22 16 10 21 18
54 19 72 1 19 5 34 10 34 4 0 5 6 1 12 -9 14 -14 42 -15 73 0 10 -5 25 -11 33
-7 8 -11 52 -10 115 3 143 -7 180 -38 142z"/>
<path d="M5677 3409 c-3 -45 -7 -83 -10 -85 -2 -3 -18 3 -35 13 -17 10 -33 15
-36 12 -3 -3 5 -28 18 -55 34 -71 41 -158 22 -285 -18 -114 -22 -213 -13 -294
10 -87 16 -157 22 -255 3 -52 10 -113 15 -135 5 -22 10 -59 10 -83 0 -49 28
-194 39 -202 4 -3 15 -16 24 -29 15 -23 17 -23 23 -5 17 52 27 74 35 74 5 0 9
-8 9 -17 0 -16 2 -16 11 -3 8 11 12 12 16 3 3 -10 8 -9 20 2 20 21 46 19 61
-5 10 -17 10 -20 -2 -20 -24 0 -28 -17 -11 -49 17 -34 20 -87 5 -96 -5 -3 -10
1 -10 9 0 8 -5 18 -11 22 -8 5 -10 -3 -7 -25 3 -23 1 -31 -8 -27 -7 3 -15 -4
-17 -17 l-4 -22 -2 23 c-1 21 -31 33 -31 12 0 -5 4 -10 9 -10 14 0 -4 -67 -23
-86 -9 -9 -18 -15 -20 -13 -4 7 -37 177 -35 185 4 21 -4 34 -46 80 -25 26 -45
53 -45 59 0 7 -9 20 -19 29 -10 10 -22 33 -25 52 -3 19 -9 50 -12 69 -4 23
-12 35 -23 35 -13 0 -13 2 -2 9 9 6 10 11 2 15 -6 4 -11 4 -12 -1 -3 -24 -17
49 -18 93 -1 67 -19 158 -31 162 -6 2 -10 11 -10 20 -1 21 -36 69 -45 60 -4
-3 -2 -15 4 -26 8 -15 7 -21 -3 -25 -7 -3 -17 -26 -20 -51 -6 -35 -12 -47 -30
-53 -20 -7 -22 -12 -15 -32 6 -15 14 -21 24 -17 8 3 15 1 15 -5 0 -6 4 -7 10
-4 6 4 7 -1 3 -11 -4 -12 -3 -15 5 -10 7 4 12 2 12 -4 0 -6 9 -31 21 -56 32
-72 14 -119 -30 -75 -25 25 -28 6 -5 -27 9 -13 14 -33 11 -44 -7 -24 22 -67
40 -61 7 3 18 -17 28 -49 8 -29 28 -68 44 -88 52 -65 217 -284 260 -345 23
-33 57 -80 76 -105 23 -31 31 -48 24 -57 -6 -6 -9 -20 -7 -30 3 -20 9 -19
-217 -26 -176 -6 -294 37 -472 172 -49 38 -120 86 -157 109 -57 34 -72 39 -93
31 -14 -5 -28 -7 -31 -4 -3 3 0 5 6 5 7 0 12 5 12 11 0 6 -9 8 -20 4 -13 -4
-42 5 -81 25 -34 17 -64 29 -66 26 -3 -3 -22 5 -42 18 -40 25 -82 43 -66 28
22 -20 176 -119 285 -183 222 -131 207 -121 185 -130 -20 -8 -20 -8 2 -14 11
-4 23 -17 25 -30 4 -21 3 -22 -26 -13 -17 5 -119 29 -227 53 -342 77 -615 163
-904 285 -93 40 -237 99 -319 131 -215 86 -262 108 -450 209 -177 95 -284 161
-351 217 -21 19 -45 31 -52 29 -6 -3 -10 1 -7 7 2 7 -8 20 -23 29 -36 21 -166
152 -198 200 -14 21 -50 93 -81 160 -46 101 -57 134 -58 183 l-2 60 -52 6
c-50 7 -298 80 -334 100 -10 5 -24 9 -32 9 -8 0 -16 6 -19 13 -7 18 -131 77
-164 77 -10 0 -38 7 -63 16 -39 14 -54 14 -112 3 -52 -9 -84 -10 -135 -1 -62
10 -121 16 -257 27 -27 2 -67 -2 -90 -10 -23 -7 -55 -16 -73 -20 -17 -3 -37
-13 -44 -21 -7 -8 -32 -24 -56 -35 -32 -15 -49 -30 -59 -55 -8 -19 -19 -34
-24 -34 -16 0 -38 -65 -46 -132 -4 -35 -13 -69 -21 -76 -7 -7 -13 -23 -13 -35
0 -68 -52 -118 -66 -62 -5 22 -12 25 -49 25 -39 0 -44 3 -60 37 -27 56 -42 68
-63 51 -9 -7 -20 -17 -24 -23 -4 -5 -8 -6 -8 -1 0 5 -6 3 -14 -3 -14 -11 -76
-30 -169 -52 -29 -6 -51 -18 -58 -30 -5 -11 -13 -18 -17 -15 -4 2 -18 -1 -31
-9 -20 -10 -31 -10 -62 3 -36 14 -43 13 -106 -8 -64 -22 -115 -26 -155 -14
-17 5 -18 -14 -18 -310 l0 -316 61 0 c87 0 251 20 274 33 11 6 77 12 148 13
71 2 164 10 210 20 45 9 88 17 95 17 6 0 12 4 12 8 0 3 9 9 20 12 11 3 20 10
20 15 0 14 -62 41 -122 53 -29 5 -91 20 -138 33 -95 26 -110 45 -45 59 108 22
214 51 250 67 69 30 91 32 147 10 29 -11 75 -23 103 -26 27 -3 79 -15 115 -26
52 -16 98 -21 225 -23 102 -1 185 -8 228 -18 78 -18 94 -27 51 -28 -29 -1 -29
-1 -4 -8 21 -7 17 -9 -25 -14 -116 -16 -184 -18 -240 -7 -110 20 -168 16 -255
-20 -25 -10 -57 -16 -71 -13 -26 5 -119 -30 -119 -45 1 -20 91 -62 134 -62 12
0 37 -10 56 -23 32 -21 101 -47 140 -52 45 -6 101 -18 144 -32 76 -24 39 -37
-125 -42 -38 -1 -79 -29 -79 -54 0 -21 -68 -51 -110 -48 -20 1 -69 -9 -110
-23 -65 -21 -82 -23 -135 -14 -137 22 -281 51 -298 60 -10 5 -27 11 -38 13
-11 2 -31 13 -46 24 -14 12 -30 21 -35 21 -5 0 -16 7 -25 15 -8 8 -20 12 -26
8 -8 -5 -8 -8 1 -11 23 -7 12 -22 -18 -22 -23 0 -28 4 -23 16 4 10 1 15 -8 13
-8 -1 -23 2 -33 6 -13 6 -21 4 -24 -3 -4 -14 -25 -15 -50 -3 -48 24 -89 30
-152 21 -36 -5 -68 -10 -72 -10 -5 0 -8 -71 -8 -159 l0 -158 128 -7 c70 -4
188 -14 262 -22 74 -7 230 -14 345 -14 148 0 228 -5 270 -15 33 -8 93 -14 133
-15 39 0 72 -4 72 -9 0 -29 -377 -34 -565 -8 -142 20 -241 26 -473 31 l-172 4
0 -28 c0 -27 3 -29 52 -34 182 -18 468 -29 764 -31 248 -2 351 -6 380 -15 l39
-13 -30 -13 c-17 -7 -52 -10 -80 -7 -31 3 -76 -3 -120 -14 -59 -16 -88 -18
-180 -12 -60 5 -148 10 -195 12 -90 5 -449 -7 -562 -19 l-68 -7 0 -52 0 -52
43 -10 42 -11 -42 -1 -43 -1 0 -454 0 -454 145 -1 c79 -1 151 -4 159 -7 8 -3
169 0 358 6 189 7 348 12 353 11 6 -1 78 -4 162 -7 145 -6 153 -7 167 -29 9
-13 26 -25 38 -28 22 -3 22 -4 3 -12 -31 -14 -75 -68 -72 -90 1 -12 -4 -20
-13 -20 -8 0 -16 9 -18 20 -6 28 -23 47 -38 41 -8 -3 -17 0 -21 7 -24 36 -106
55 -147 33 -16 -8 -33 -13 -37 -11 -4 3 -10 -2 -13 -11 -4 -12 -10 -13 -19 -6
-23 20 -579 32 -802 18 -66 -4 -139 -7 -162 -7 l-43 2 0 -191 0 -190 5000 0
5000 0 0 670 c0 579 -2 670 -15 670 -7 0 -36 -4 -62 -10 -26 -5 -61 -12 -78
-16 -125 -25 -208 -18 -291 24 l-38 20 49 6 c28 3 137 8 243 12 l192 7 0 49 0
50 -282 -8 c-401 -11 -447 -10 -488 9 -42 20 -222 68 -228 62 -3 -2 1 -7 9 -9
174 -60 224 -78 273 -100 32 -14 62 -26 67 -26 11 0 313 -136 413 -187 l78
-39 -124 -18 c-67 -10 -130 -21 -138 -23 -11 -3 -10 -1 2 10 22 18 12 28 -18
21 -20 -5 -24 -2 -24 15 0 17 -6 21 -30 21 -18 0 -30 -5 -30 -13 0 -8 -13 -13
-35 -13 -22 0 -35 5 -35 13 0 8 13 13 33 13 31 1 31 1 12 16 -19 15 -19 15 8
9 22 -6 26 -4 21 8 -6 17 -74 29 -89 16 -5 -5 0 -9 13 -9 12 0 22 -4 22 -10 0
-15 -27 -12 -44 5 -8 8 -19 15 -25 15 -6 0 -11 7 -11 15 0 12 -7 14 -27 9 -44
-11 -47 -15 -19 -33 l26 -18 -25 -11 c-23 -10 -25 -10 -23 6 2 13 -3 16 -22
15 -73 -7 -271 -3 -238 4 15 4 35 34 20 32 -35 -5 -61 3 -67 22 -5 14 -10 18
-14 10 -6 -9 -11 -8 -21 4 -11 13 -9 15 11 15 13 0 51 -7 84 -16 84 -21 135
-27 135 -15 0 6 -17 13 -37 16 -21 4 -51 13 -68 20 -16 7 -42 17 -57 20 -16 4
-28 11 -28 17 0 5 -7 8 -16 6 -10 -2 -19 3 -21 10 -3 6 2 12 11 12 9 0 16 6
16 14 0 16 -33 28 -70 27 -14 0 -19 2 -12 5 6 3 12 12 12 19 0 17 20 24 53 18
16 -3 27 -1 27 6 0 6 -8 11 -17 11 -10 0 -28 3 -40 6 -17 5 -23 2 -23 -9 0
-16 -61 -30 -70 -16 -3 5 -19 9 -35 9 -99 0 -115 2 -112 13 1 8 -24 15 -73 21
-41 5 -79 14 -83 20 -6 8 -10 7 -14 -1 -2 -7 -11 -13 -19 -13 -9 0 -12 5 -9
10 4 6 -28 11 -87 12 -129 3 -156 4 -221 12 -31 4 -57 4 -57 -1 0 -4 21 -9 48
-11 26 -2 66 -5 90 -6 45 -4 79 -24 55 -33 -23 -8 -14 -23 15 -23 37 0 177
-40 287 -82 50 -19 113 -40 140 -48 59 -15 137 -62 158 -94 8 -12 21 -40 27
-62 11 -36 17 -42 58 -54 25 -7 89 -14 142 -15 53 -1 102 -5 109 -10 7 -4 16
-3 20 2 8 11 29 10 64 -5 40 -17 52 -15 65 11 8 17 11 18 11 5 1 -18 21 -26
21 -8 0 5 20 9 45 8 25 0 44 -2 42 -5 -2 -2 -51 -15 -108 -29 -125 -30 -337
-46 -405 -31 -45 10 -46 10 -70 -21 -18 -23 -41 -36 -82 -48 -31 -8 -124 -38
-207 -66 -234 -78 -395 -103 -730 -113 -235 -7 -254 -5 -480 44 -71 16 -170
37 -220 46 -85 16 -333 92 -377 116 -17 9 -18 13 -7 20 12 7 12 9 0 9 -15 0
-6 14 10 16 5 1 17 2 27 4 12 1 8 6 -14 15 -17 8 -36 20 -42 28 -10 12 -6 18
23 36 19 11 41 25 48 31 78 65 117 89 179 112 83 31 202 67 301 93 37 10 67
22 67 26 0 5 7 9 16 9 34 0 2 16 -37 19 -53 3 -89 20 -44 21 22 0 26 3 15 9
-8 6 -17 8 -21 5 -4 -2 -11 0 -14 6 -4 6 -16 8 -27 4 -15 -5 -20 -3 -16 7 9
23 -51 21 -102 -2 -71 -33 -119 -59 -181 -101 -56 -37 -87 -49 -74 -28 12 19
-7 10 -65 -30 -70 -47 -122 -70 -160 -70 -26 0 -28 3 -26 39 1 22 7 45 12 53
6 7 21 47 33 88 13 41 29 98 38 125 8 28 51 136 95 240 44 105 98 244 119 310
22 66 50 147 64 180 28 70 25 90 -17 153 -16 23 -31 53 -33 65 -11 74 -13 117
-6 157 8 41 9 38 10 -35 1 -85 15 -129 25 -84 23 96 36 162 41 212 4 31 11 60
16 63 5 3 9 12 9 20 0 17 -41 10 -78 -13 -22 -13 -63 -73 -69 -98 -1 -5 -11
-37 -22 -70 -18 -57 -20 -59 -29 -34 -6 15 -29 46 -51 70 -22 24 -41 48 -41
53 0 5 -18 32 -40 61 -58 75 -110 207 -110 280 0 37 -16 38 -39 2 l-21 -32 3
42 c1 24 5 43 10 43 4 0 7 5 7 12 0 6 -8 4 -19 -6 -26 -24 -25 -97 1 -104 22
-5 24 -32 3 -32 -8 0 -15 -7 -15 -16 0 -14 3 -14 15 -4 19 15 16 18 50 -50 15
-30 60 -111 100 -180 40 -69 80 -149 90 -177 13 -42 21 -53 38 -53 12 0 33 -9
47 -20 24 -20 25 -21 6 -35 -11 -8 -28 -15 -38 -15 -15 0 -18 -9 -18 -64 0
-55 4 -68 29 -100 33 -42 45 -88 32 -131 l-9 -30 -1 28 c-1 15 -5 27 -9 27 -5
0 -15 18 -22 40 -14 44 -25 45 -32 3 -11 -64 -71 -277 -89 -321 -11 -26 -43
-120 -70 -210 -26 -90 -55 -169 -63 -177 -25 -25 -54 -19 -58 13 -2 20 -13 32
-40 45 -24 12 -38 26 -38 38 0 23 -32 26 -50 4 -7 -9 -15 -13 -18 -10 -8 7
-42 -26 -42 -41 0 -7 -15 -18 -34 -25 -19 -7 -37 -21 -40 -32 -4 -18 -6 -18
-26 -4 -12 9 -28 13 -35 11 -6 -3 -18 2 -25 11 -7 8 -22 15 -34 15 -11 1 -32
7 -46 15 -14 8 -36 14 -50 15 -40 0 -66 25 -90 87 -12 32 -31 81 -42 109 -19
47 -19 53 -4 82 21 41 20 68 -3 99 -11 13 -25 49 -32 80 -9 38 -15 50 -19 38
-6 -16 -9 -14 -29 13 -25 35 -51 41 -76 16 -9 -9 -17 -15 -19 -13 -6 10 12
208 23 240 11 35 14 37 69 42 47 5 59 3 70 -11 12 -16 14 -15 33 8 10 14 30
49 44 78 14 28 30 52 35 52 28 0 90 75 115 139 14 38 34 76 44 85 12 11 16 25
13 43 -3 18 -1 24 7 19 6 -4 11 -14 11 -22 0 -9 11 -14 34 -14 53 0 66 9 67
44 l1 31 14 -33 c10 -24 19 -32 30 -28 9 3 20 6 25 6 12 0 0 130 -14 147 -9
13 -19 76 -18 120 1 16 -4 21 -15 16 -14 -5 -16 -20 -12 -94 3 -72 2 -86 -9
-77 -15 12 -43 -6 -43 -28 0 -8 -4 -14 -9 -14 -4 0 -4 17 2 38 9 34 8 41 -9
58 -11 11 -26 18 -33 16 -8 -3 -11 3 -9 14 2 13 -4 20 -20 22 -14 2 -22 -1
-20 -10 2 -8 -8 -13 -27 -14 -21 0 -29 -5 -27 -15 2 -8 8 -15 13 -17 15 -6 10
-22 -6 -22 -8 0 -22 -16 -30 -37 -17 -41 -27 -38 -31 9 -13 158 -18 181 -42
209 -31 37 -37 32 -17 -14 9 -22 15 -68 15 -117 0 -47 4 -80 10 -80 6 0 10 -4
10 -10 0 -5 -6 -10 -14 -10 -7 0 -16 -13 -19 -29 -4 -20 -13 -30 -31 -33 -30
-6 -51 27 -43 68 5 30 -10 84 -24 84 -5 0 -9 -8 -9 -19 0 -10 -5 -32 -11 -49
-9 -27 -15 -31 -35 -26 -29 7 -31 -7 -9 -58 14 -36 7 -58 -21 -58 -14 0 -74
-72 -74 -89 0 -21 -16 -11 -34 23 -10 20 -29 37 -43 41 l-25 6 6 227 c4 164 2
235 -6 260 -10 26 -10 35 1 41 33 21 33 171 -1 204 -14 14 -16 7 -21 -64z
m-2998 -993 c5 -4 31 -9 58 -12 26 -3 52 -9 58 -14 5 -4 21 -11 34 -15 18 -5
22 -4 15 6 -4 7 7 3 24 -10 18 -12 32 -20 32 -17 0 3 18 -4 40 -15 22 -12 40
-22 40 -24 0 -6 -45 8 -57 18 -15 11 -18 -4 -3 -19 6 -6 6 -15 0 -24 -8 -13
-10 -12 -10 3 0 9 -5 17 -11 17 -5 0 -8 -4 -4 -9 10 -17 -32 -22 -122 -16 -48
3 -176 6 -283 5 -177 -1 -199 1 -235 20 -21 11 -46 20 -55 21 -13 0 -13 1 0 6
8 4 22 14 31 24 11 13 29 18 65 17 27 0 76 9 109 20 33 12 71 22 85 24 37 5
178 1 189 -6z m1894 -1080 c50 -19 54 -36 9 -36 -26 -1 -26 -1 7 -15 18 -8 42
-15 52 -15 15 0 19 -7 19 -31 0 -26 3 -29 20 -24 11 3 20 2 20 -3 0 -8 -15
-17 -70 -40 -24 -10 -24 -11 9 -11 28 -1 32 -3 21 -16 -13 -16 -6 -35 15 -35
20 0 30 -21 14 -31 -19 -12 48 -11 186 1 209 18 257 19 251 4 -3 -8 -2 -13 2
-13 4 1 12 0 17 -1 17 -3 -144 -40 -245 -55 -52 -8 -178 -28 -280 -45 -102
-17 -205 -32 -230 -34 -25 -2 -97 -11 -160 -20 -291 -39 -464 -47 -1320 -61
-151 -2 -289 -7 -306 -11 -46 -9 -74 22 -74 81 0 58 20 96 67 132 21 15 44 34
52 41 41 39 84 53 306 96 72 15 159 33 195 40 36 8 90 18 120 22 30 3 66 12
80 19 42 21 187 45 386 65 257 25 763 22 837 -4z m-3584 -57 c17 -6 31 -17 31
-24 0 -8 9 -17 21 -20 15 -5 18 -10 10 -18 -6 -6 -11 -18 -10 -26 0 -11 2 -12
6 -3 6 14 23 16 23 2 0 -5 -23 -21 -51 -36 -42 -21 -62 -25 -103 -21 -56 5
-136 28 -136 39 0 4 6 5 14 2 8 -3 19 3 25 15 14 25 14 27 -5 45 -14 15 -14
16 0 16 9 0 15 3 15 8 -5 28 4 32 65 32 34 0 77 -5 95 -11z m5466 -69 c67 -15
71 -33 18 -98 -72 -89 -175 -191 -213 -211 -19 -11 -44 -28 -54 -40 -11 -12
-26 -21 -35 -21 -9 0 -34 -7 -56 -14 -22 -8 -78 -17 -125 -20 -181 -13 -278
-24 -296 -34 -11 -5 -38 -13 -62 -17 -38 -6 -52 -2 -130 38 -48 24 -96 47
-107 51 -25 7 -155 128 -155 143 0 28 43 41 286 83 61 10 87 4 63 -14 -8 -6
-21 -20 -29 -30 -14 -18 -13 -18 10 -11 14 4 45 21 70 37 63 41 168 90 215
100 48 10 154 24 290 38 55 6 120 14 145 19 62 12 118 12 165 1z m-5408 -460
c12 0 24 -4 27 -8 3 -5 49 -9 103 -11 107 -2 146 -9 138 -22 -8 -13 -483 -2
-540 12 -65 16 -38 26 80 28 49 1 90 3 92 5 2 1 20 1 40 -1 21 -1 48 -3 60 -3z
m768 -40 c88 -5 185 -14 215 -20 30 -6 102 -10 160 -10 144 2 135 3 120 -15
-11 -13 -40 -15 -199 -10 -395 11 -582 25 -631 48 -23 11 -19 12 40 18 36 3
81 4 100 3 19 -2 107 -8 195 -14z m3552 -117 c29 -31 53 -61 53 -67 1 -14 62
-81 95 -102 53 -35 28 -40 -82 -18 -32 6 -32 6 -20 -20 7 -14 15 -26 19 -26 4
0 23 -15 43 -33 32 -30 35 -35 21 -47 -14 -10 -29 -8 -92 15 -112 41 -188 96
-261 190 -80 104 -82 132 -5 85 27 -16 48 -20 95 -18 l62 3 -2 48 c-1 29 3 47
10 47 6 0 35 -26 64 -57z m-1255 -125 c3 -7 -3 -26 -13 -43 -19 -31 -44 -82
-60 -124 -8 -19 -12 -21 -24 -11 -10 9 -15 9 -15 1 0 -24 -26 -9 -48 29 -21
37 -26 40 -67 40 -25 0 -45 -5 -45 -10 0 -7 -6 -7 -18 -1 -10 5 -47 10 -83 10
-100 1 -232 13 -252 23 -10 5 -52 11 -93 14 -62 3 -77 1 -92 -14 -23 -23 -117
-35 -245 -34 -96 2 -111 6 -103 29 4 9 1 22 -5 30 -7 7 -9 16 -6 20 24 23 205
20 270 -6 39 -15 97 -14 131 4 25 13 55 14 215 6 153 -8 198 -8 246 4 33 8 83
15 110 15 28 1 79 7 115 15 36 7 68 13 71 14 4 1 9 -5 11 -11z m-1290 -30 c83
-3 102 -8 78 -23 -5 -3 -10 -15 -10 -25 0 -26 -18 -34 -45 -20 -19 10 -42 7
-138 -15 -122 -29 -161 -28 -170 4 -5 21 16 70 36 84 7 4 46 5 87 2 41 -3 114
-6 162 -7z"/>
<path d="M7052 3263 c-7 -7 -10 -13 -6 -13 4 0 -2 -10 -14 -22 -43 -47 -92
-208 -63 -208 6 0 11 7 11 15 0 24 20 17 21 -7 0 -13 2 -37 5 -55 2 -17 0 -52
-5 -76 l-8 -45 41 23 c28 16 40 29 38 42 -11 80 16 200 71 308 16 31 16 37 4
27 -9 -8 -19 -22 -22 -33 -10 -32 -24 -21 -20 15 4 29 1 34 -18 38 -13 3 -29
-1 -35 -9z"/>
<path d="M5090 3240 c0 -6 -4 -8 -10 -5 -18 11 -11 -11 28 -86 21 -41 51 -109
67 -151 21 -55 32 -73 38 -63 4 8 4 23 0 32 -5 10 -8 27 -8 38 1 11 -3 26 -9
33 -5 8 -11 22 -13 33 -3 18 -2 18 16 0 10 -10 21 -25 24 -32 3 -9 6 -6 6 7 1
12 -6 27 -14 34 -8 7 -15 18 -15 26 0 7 -9 16 -20 19 -15 5 -19 12 -15 26 4
13 -3 30 -21 52 -31 37 -54 53 -54 37z"/>
<path d="M5390 3064 c0 -4 14 -22 30 -41 39 -44 41 -79 13 -188 -21 -83 -24
-95 -33 -138 -4 -21 -13 -44 -20 -50 -9 -9 -11 -2 -8 32 7 97 -45 25 -57 -80
-6 -46 -3 -62 14 -92 12 -21 21 -50 22 -65 1 -26 2 -25 16 10 8 20 24 39 35
42 17 4 20 10 14 37 -3 18 -2 46 3 63 5 17 23 76 40 131 43 140 47 207 19 267
-15 31 -34 52 -55 62 -18 9 -33 13 -33 10z"/>
<path d="M3604 2668 c-4 -6 3 -19 16 -30 12 -10 19 -18 15 -18 -11 0 37 -35
58 -43 9 -3 17 -14 17 -23 0 -15 21 -42 85 -108 18 -19 30 -42 30 -61 2 -46
14 -59 95 -101 41 -21 77 -41 80 -44 3 -3 29 -21 58 -40 28 -18 52 -37 52 -41
0 -4 11 -9 23 -13 13 -3 41 -19 62 -36 20 -16 41 -28 45 -25 4 3 13 -2 20 -10
7 -8 21 -15 32 -15 10 0 21 -7 24 -15 4 -8 14 -15 24 -15 10 0 20 -6 23 -12 2
-7 8 -9 13 -5 8 7 -4 19 -31 31 -6 3 -4 9 4 14 11 8 9 12 -9 22 -15 8 -20 8
-16 1 4 -6 3 -11 -1 -11 -5 0 -23 19 -40 43 -29 41 -187 176 -310 264 -32 22
-105 85 -163 140 -101 95 -182 163 -193 163 -3 0 -9 -5 -13 -12z"/>
<path d="M9010 1490 c-15 -3 -25 -13 -24 -23 3 -63 4 -67 24 -67 20 0 24 8 21
45 -2 17 0 17 8 5 6 -8 11 -23 11 -32 0 -12 8 -18 23 -18 13 0 27 -3 31 -7 4
-5 13 -8 19 -8 7 0 11 -8 11 -18 -1 -10 3 -16 10 -14 6 2 11 10 11 18 0 14 35
14 45 0 3 -5 16 -11 30 -14 14 -3 34 -13 45 -22 19 -14 19 -15 -8 -5 -31 11
-74 14 -64 4 10 -10 77 -22 97 -17 11 3 20 12 20 20 0 8 5 11 12 7 8 -5 9 -2
5 10 -4 10 -7 24 -7 32 0 11 -6 13 -19 9 -11 -3 -22 -1 -25 4 -4 6 -13 8 -21
4 -9 -3 -26 2 -38 10 -13 8 -41 18 -63 21 -21 4 -50 15 -64 25 -42 30 -64 38
-90 31z"/>
<path d="M7393 1322 c-16 -2 -23 -10 -23 -27 0 -13 -3 -31 -6 -40 -5 -13 -9
-14 -15 -3 -8 11 -11 11 -18 -1 -7 -10 -11 -6 -16 17 -4 21 -12 30 -25 29 -10
-1 -16 -7 -13 -14 3 -8 -3 -13 -17 -13 -11 0 -18 -4 -15 -10 3 -5 -2 -10 -13
-10 -10 0 -27 -9 -37 -20 -17 -18 -16 -19 11 -25 47 -11 54 -14 54 -25 0 -19
-29 -22 -46 -6 -15 16 -34 14 -34 -4 0 -7 40 -23 65 -25 6 0 16 -4 23 -8 6 -5
12 -6 12 -2 0 3 9 1 19 -5 13 -7 22 -7 26 0 3 5 -5 15 -19 22 -18 8 -23 15
-16 23 5 7 7 14 5 17 -7 6 64 18 127 21 27 1 47 7 45 12 -1 6 -8 9 -14 9 -7
-1 -13 4 -13 12 0 16 -16 19 -24 5 -4 -5 0 -12 6 -15 7 -3 0 -3 -17 1 -36 7
-43 12 -29 21 12 8 47 63 42 66 -2 1 -13 0 -25 -2z"/>
</g>
</svg>
